<?xml version="1.0" encoding="UTF-8" standalone="no"?>
<svg width="147px" height="32px" viewBox="0 0 147 32" version="1.1" xmlns="http://www.w3.org/2000/svg" xmlns:xlink="http://www.w3.org/1999/xlink">
    <!-- Generator: Sketch 43.2 (39069) - http://www.bohemiancoding.com/sketch -->
    <title>Logo-Dark</title>
    <desc>Created with Sketch.</desc>
    <defs></defs>
    <g id="Finals" stroke="none" stroke-width="1" fill="none" fill-rule="evenodd">
        <g id="dashboard-copy" transform="translate(-646.000000, -9.000000)">
            <g id="Logo-Dark" transform="translate(646.000000, 9.000000)">
                <g id="Group-2" transform="translate(37.000000, 2.000000)" fill="#1F363D">
                    <text id="INCITE" font-family="SkolarSans-Lt, Skolar Sans Latin" font-size="20" font-weight="300" line-spacing="20">
                        <tspan x="54" y="25">INCITE</tspan>
                    </text>
                    <text id="civic" font-family="SkolarSans-Sb, Skolar Sans Latin" font-size="26" font-weight="500" line-spacing="26" letter-spacing="1">
                        <tspan x="0" y="26">civi</tspan>
                        <tspan x="42.142" y="26">c</tspan>
                    </text>
                </g>
                <path d="M15,0.997030139 C15,0.446385598 15.4438648,0 16,0 C16.5522847,0 17,0.453036308 17,0.997030139 L17,7.00296986 C17,7.5536144 16.5561352,8 16,8 C15.4477153,8 15,7.54696369 15,7.00296986 L15,0.997030139 Z M22.6354595,2.50704697 C22.9107818,2.03017481 23.5183728,1.86552595 24,2.14359354 C24.4782926,2.41973591 24.6395072,3.03593449 24.3675103,3.50704697 L21.3645405,8.70834334 C21.0892182,9.1852155 20.4816272,9.34986436 20,9.07179677 C19.5217074,8.79565439 19.3604928,8.17945582 19.6324897,7.70834334 L22.6354595,2.50704697 Z M28.492953,7.63248967 C28.9698252,7.3571674 29.5783389,7.51837281 29.8564065,8 C30.1325488,8.47829262 29.9640655,9.09254356 29.492953,9.36454047 L24.2916567,12.3675103 C23.8147845,12.6428326 23.2062708,12.4816272 22.9282032,12 C22.6520609,11.5217074 22.8205442,10.9074564 23.2916567,10.6354595 L28.492953,7.63248967 Z M31.0029699,15 C31.5536144,15 32,15.4438648 32,16 C32,16.5522847 31.5469637,17 31.0029699,17 L24.9970301,17 C24.4463856,17 24,16.5561352 24,16 C24,15.4477153 24.4530363,15 24.9970301,15 L31.0029699,15 Z M29.492953,22.6354595 C29.9698252,22.9107818 30.134474,23.5183728 29.8564065,24 C29.5802641,24.4782926 28.9640655,24.6395072 28.492953,24.3675103 L23.2916567,21.3645405 C22.8147845,21.0892182 22.6501356,20.4816272 22.9282032,20 C23.2043456,19.5217074 23.8205442,19.3604928 24.2916567,19.6324897 L29.492953,22.6354595 Z M24.3675103,28.492953 C24.6428326,28.9698252 24.4816272,29.5783389 24,29.8564065 C23.5217074,30.1325488 22.9074564,29.9640655 22.6354595,29.492953 L19.6324897,24.2916567 C19.3571674,23.8147845 19.5183728,23.2062708 20,22.9282032 C20.4782926,22.6520609 21.0925436,22.8205442 21.3645405,23.2916567 L24.3675103,28.492953 Z M17,31.0029699 C17,31.5536144 16.5561352,32 16,32 C15.4477153,32 15,31.5469637 15,31.0029699 L15,24.9970301 C15,24.4463856 15.4438648,24 16,24 C16.5522847,24 17,24.4530363 17,24.9970301 L17,31.0029699 Z M9.36454047,29.492953 C9.0892182,29.9698252 8.48162719,30.134474 8,29.8564065 C7.52170738,29.5802641 7.36049275,28.9640655 7.63248967,28.492953 L10.6354595,23.2916567 C10.9107818,22.8147845 11.5183728,22.6501356 12,22.9282032 C12.4782926,23.2043456 12.6395072,23.8205442 12.3675103,24.2916567 L9.36454047,29.492953 Z M3.50704697,24.3675103 C3.03017481,24.6428326 2.42166113,24.4816272 2.14359354,24 C1.86745116,23.5217074 2.03593449,22.9074564 2.50704697,22.6354595 L7.70834334,19.6324897 C8.1852155,19.3571674 8.79372918,19.5183728 9.07179677,20 C9.34793914,20.4782926 9.17945582,21.0925436 8.70834334,21.3645405 L3.50704697,24.3675103 Z M0.997030139,17 C0.446385598,17 -8.15366451e-17,16.5561352 -1.8369702e-16,16 C-2.85150083e-16,15.4477153 0.453036308,15 0.997030139,15 L7.00296986,15 C7.5536144,15 8,15.4438648 8,16 C8,16.5522847 7.54696369,17 7.00296986,17 L0.997030139,17 Z M2.50704697,9.36454047 C2.03017481,9.0892182 1.86552595,8.48162719 2.14359354,8 C2.41973591,7.52170738 3.03593449,7.36049275 3.50704697,7.63248967 L8.70834334,10.6354595 C9.1852155,10.9107818 9.34986436,11.5183728 9.07179677,12 C8.79565439,12.4782926 8.17945582,12.6395072 7.70834334,12.3675103 L2.50704697,9.36454047 Z M7.63248967,3.50704697 C7.3571674,3.03017481 7.51837281,2.42166113 8,2.14359354 C8.47829262,1.86745116 9.09254356,2.03593449 9.36454047,2.50704697 L12.3675103,7.70834334 C12.6428326,8.1852155 12.4816272,8.79372918 12,9.07179677 C11.5217074,9.34793914 10.9074564,9.17945582 10.6354595,8.70834334 L7.63248967,3.50704697 Z" id="Rectangle-2" fill="#00B4EE"></path>
            </g>
        </g>
    </g>
</svg>