<?xml version="1.0" encoding="UTF-8" standalone="no"?>
<svg width="143px" height="32px" viewBox="0 0 143 32" version="1.1" xmlns="http://www.w3.org/2000/svg" xmlns:xlink="http://www.w3.org/1999/xlink">
    <!-- Generator: Sketch 43.2 (39069) - http://www.bohemiancoding.com/sketch -->
    <title>Logo-Dark</title>
    <desc>Created with Sketch.</desc>
    <defs></defs>
    <g id="Finals" stroke="none" stroke-width="1" fill="none" fill-rule="evenodd">
        <g id="Logo-Dark" transform="translate(0.000000, -2.000000)">
            <g id="Group-2" transform="translate(37.000000, 0.000000)" fill="#1F363D">
                <g id="INCITE" transform="translate(50.000000, 6.000000)" font-size="20" font-family="SkolarSans-Lt, Skolar Sans Latin" font-weight="300">
                    <text>
                        <tspan x="0" y="20">INCITE</tspan>
                    </text>
                </g>
                <g id="civic" font-size="26" font-family="SkolarSans-Me, Skolar Sans Latin" font-weight="400">
                    <text id="civi">
                        <tspan x="0" y="26">civi</tspan>
                    </text>
                    <text id="c">
                        <tspan x="37.142" y="26">c</tspan>
                    </text>
                </g>
            </g>
            <path d="M15,2.99703014 C15,2.4463856 15.4438648,2 16,2 C16.5522847,2 17,2.45303631 17,2.99703014 L17,9.00296986 C17,9.5536144 16.5561352,10 16,10 C15.4477153,10 15,9.54696369 15,9.00296986 L15,2.99703014 Z M22.6354595,4.50704697 C22.9107818,4.03017481 23.5183728,3.86552595 24,4.14359354 C24.4782926,4.41973591 24.6395072,5.03593449 24.3675103,5.50704697 L21.3645405,10.7083433 C21.0892182,11.1852155 20.4816272,11.3498644 20,11.0717968 C19.5217074,10.7956544 19.3604928,10.1794558 19.6324897,9.70834334 L22.6354595,4.50704697 Z M28.492953,9.63248967 C28.9698252,9.3571674 29.5783389,9.51837281 29.8564065,10 C30.1325488,10.4782926 29.9640655,11.0925436 29.492953,11.3645405 L24.2916567,14.3675103 C23.8147845,14.6428326 23.2062708,14.4816272 22.9282032,14 C22.6520609,13.5217074 22.8205442,12.9074564 23.2916567,12.6354595 L28.492953,9.63248967 Z M31.0029699,17 C31.5536144,17 32,17.4438648 32,18 C32,18.5522847 31.5469637,19 31.0029699,19 L24.9970301,19 C24.4463856,19 24,18.5561352 24,18 C24,17.4477153 24.4530363,17 24.9970301,17 L31.0029699,17 Z M29.492953,24.6354595 C29.9698252,24.9107818 30.134474,25.5183728 29.8564065,26 C29.5802641,26.4782926 28.9640655,26.6395072 28.492953,26.3675103 L23.2916567,23.3645405 C22.8147845,23.0892182 22.6501356,22.4816272 22.9282032,22 C23.2043456,21.5217074 23.8205442,21.3604928 24.2916567,21.6324897 L29.492953,24.6354595 Z M24.3675103,30.492953 C24.6428326,30.9698252 24.4816272,31.5783389 24,31.8564065 C23.5217074,32.1325488 22.9074564,31.9640655 22.6354595,31.492953 L19.6324897,26.2916567 C19.3571674,25.8147845 19.5183728,25.2062708 20,24.9282032 C20.4782926,24.6520609 21.0925436,24.8205442 21.3645405,25.2916567 L24.3675103,30.492953 Z M17,33.0029699 C17,33.5536144 16.5561352,34 16,34 C15.4477153,34 15,33.5469637 15,33.0029699 L15,26.9970301 C15,26.4463856 15.4438648,26 16,26 C16.5522847,26 17,26.4530363 17,26.9970301 L17,33.0029699 Z M9.36454047,31.492953 C9.0892182,31.9698252 8.48162719,32.134474 8,31.8564065 C7.52170738,31.5802641 7.36049275,30.9640655 7.63248967,30.492953 L10.6354595,25.2916567 C10.9107818,24.8147845 11.5183728,24.6501356 12,24.9282032 C12.4782926,25.2043456 12.6395072,25.8205442 12.3675103,26.2916567 L9.36454047,31.492953 Z M3.50704697,26.3675103 C3.03017481,26.6428326 2.42166113,26.4816272 2.14359354,26 C1.86745116,25.5217074 2.03593449,24.9074564 2.50704697,24.6354595 L7.70834334,21.6324897 C8.1852155,21.3571674 8.79372918,21.5183728 9.07179677,22 C9.34793914,22.4782926 9.17945582,23.0925436 8.70834334,23.3645405 L3.50704697,26.3675103 Z M0.997030139,19 C0.446385598,19 1.02160375e-16,18.5561352 0,18 C-1.01453063e-16,17.4477153 0.453036308,17 0.997030139,17 L7.00296986,17 C7.5536144,17 8,17.4438648 8,18 C8,18.5522847 7.54696369,19 7.00296986,19 L0.997030139,19 Z M2.50704697,11.3645405 C2.03017481,11.0892182 1.86552595,10.4816272 2.14359354,10 C2.41973591,9.52170738 3.03593449,9.36049275 3.50704697,9.63248967 L8.70834334,12.6354595 C9.1852155,12.9107818 9.34986436,13.5183728 9.07179677,14 C8.79565439,14.4782926 8.17945582,14.6395072 7.70834334,14.3675103 L2.50704697,11.3645405 Z M7.63248967,5.50704697 C7.3571674,5.03017481 7.51837281,4.42166113 8,4.14359354 C8.47829262,3.86745116 9.09254356,4.03593449 9.36454047,4.50704697 L12.3675103,9.70834334 C12.6428326,10.1852155 12.4816272,10.7937292 12,11.0717968 C11.5217074,11.3479391 10.9074564,11.1794558 10.6354595,10.7083433 L7.63248967,5.50704697 Z" id="Rectangle-2" fill="#00B4EE" fill-rule="nonzero"></path>
        </g>
    </g>
</svg>